# AST/ASF file generated using VICON BodyLanguage
# -----------------------------------------------
:version 1.10
:name VICON
:units
  mass 1.0
  length 0.45
  angle deg
:documentation
   .ast/.asf automatically generated from VICON data using
   VICON BodyBuilder and BodyLanguage model FoxedUp or BRILLIANT.MOD
:root
   order TX TY TZ RX RY RZ
   axis XYZ
   position 0 0 0  
   orientation 0 0 0 
:bonedata
  begin
     id 1 
     name lhipjoint
     direction 0.611804 -0.747784 0.257906 
     length 2.29243 
     axis 0 0 0  XYZ
  end
  begin
     id 2 
     name lfemur
     direction 0.34202 -0.939693 0  
     length 7.31159  
     axis 0 0 20  XYZ
    dof rx ry rz
    limits (-160.0 20.0)
           (-70.0 70.0)
           (-60.0 70.0)
  end
  begin
     id 3 
     name ltibia
     direction 0.34202 -0.939693 0   
     length 7.33391   
     axis 0 0 20   XYZ
    dof rx
    limits (-10.0 170.0)
  end
  begin
     id 4 
     name lfoot
     direction 0.122263 -0.335914 0.933924   
     length 1.76083   
     axis -90 7.62852e-016 20   XYZ
    dof rx rz
    limits (-45.0 90.0)
           (-70.0 20.0)
  end
  begin
     id 5 
     name ltoes
     direction 1.53533e-011 -4.2177e-011 1   
     length 0.879206   
     axis -90 7.62852e-016 20   XYZ
    dof rx
    limits (-90.0 20.0)
  end
  begin
     id 6 
     name rhipjoint
     direction -0.646469 -0.721248 0.248754   
     length 2.37677  
     axis 0 0 0  XYZ 
  end
  begin
     id 7 
     name rfemur
     direction -0.34202 -0.939693 0   
     length 7.18623   
     axis 0 0 -20   XYZ
    dof rx ry rz
    limits (-160.0 20.0)
           (-70.0 70.0)
           (-70.0 60.0)
  end
  begin
     id 8 
     name rtibia
     direction -0.34202 -0.939693 0   
     length 7.36567   
     axis 0 0 -20   XYZ
    dof rx
    limits (-10.0 170.0)
 end
 begin
     id 9 
     name rfoot
     direction -0.126681 -0.348054 0.928876   
     length 1.71902  
     axis -90 -7.62852e-016 -20   XYZ
    dof rx rz
    limits (-45.0 90.0)
           (-20.0 70.0)
  end
  begin
     id 10 
     name rtoes
     direction -1.53551e-011 -4.21898e-011 1   
     length 0.857792   
     axis -90 -7.62852e-016 -20   XYZ
    dof rx
    limits (-90.0 20.0)
  end
  begin
     id 11 
     name lowerback
     direction 0.0106509 0.999778 0.0181844   
     length 2.07668   
     axis 0 0 0   XYZ
    dof rx ry rz
    limits (-20.0 45.0)
           (-30.0 30.0)
           (-30.0 30.0)
  end
  begin
     id 12 
     name upperback
     direction -0.00456018 0.999989 -0.000590935   
     length 2.08011   
     axis 0 0 0   XYZ
    dof rx ry rz
    limits (-20.0 45.0)
           (-30.0 30.0)
           (-30.0 30.0)
  end
  begin
     id 13 
     name thorax
     direction -0.00910382 0.999916 -0.00923765   
     length 2.07397   
     axis 0 0 0   XYZ
    dof rx ry rz
    limits (-20.0 45.0)
           (-30.0 30.0)
           (-30.0 30.0)
  end
  begin
     id 14 
     name lowerneck
     direction 0.00171967 0.99778 0.0665733   
     length 1.67556   
     axis 0 0 0   XYZ
    dof rx ry rz
    limits (-20.0 45.0)
           (-30.0 30.0)
           (-30.0 30.0)
  end
  begin
     id 15 
     name upperneck
     direction -0.0143166 0.991302 -0.130828   
     length 1.68462   
     axis 0 0 0   XYZ
    dof rx ry rz
    limits (-20.0 45.0)
           (-30.0 30.0)
           (-30.0 30.0)
  end
  begin
     id 16
     name head
     direction -0.00606378 0.998665 -0.0512995  
     length 1.69269  
     axis 0 0 0   XYZ
    dof rx ry rz
    limits (-20.0 45.0)
           (-30.0 30.0)
           (-30.0 30.0)
  end
  begin
     id 17 
     name lclavicle
     direction 0.9638 0.179341 0.197297  
     length 4.12888  
     axis 0 0 0   XYZ
    dof ry rz
    limits (-20.0 10.0)
           (0.0 20.0)
  end
  begin
     id 18 
     name lhumerus
     direction 1 -4.48972e-011 -2.47351e-027   
     length 5.01834   
     axis -180 -30 -90   XYZ
    dof rx ry rz
    limits (-60.0 90.0)
           (-90.0 90.0)
           (-90.0 90.0)
  end
  begin
     id 19
     name lradius
     direction 1 -4.48965e-011 1.51591e-026   
     length 3.4869   
     axis -180 -30 -90   XYZ
    dof rx
    limits (-10.0 170.0)
  end
  begin
     id 20
     name lwrist
     direction 1 -4.48957e-011 2.70032e-026   
     length 1.74345   
     axis -1.81515e-014 90 90   XYZ
    dof ry
    limits (-180.0 0.0)
 end
  begin
     id 21 
     name lhand
     direction 1 -4.48951e-011 5.40064e-026   
     length 0.76799   
     axis -3.44607e-014 90 90   XYZ
    dof rx rz
    limits (-90.0 90.0)
           (-45.0 45.0)
  end
  begin
     id 22 
     name lfingers
     direction 1 -4.48971e-011 1.08013e-025   
     length 0.619174   
     axis -6.89214e-014 90 90   XYZ
    dof rx
    limits (0.0 90.0)
  end
  begin
     id 23
     name lthumb
     direction 0.707107 -6.34931e-011 0.707107   
     length 0.889013   
     axis -90 45 2.85299e-015   XYZ
    dof rx rz
    limits (-45.0 45.0)
           (-45.0 45.0)
  end
  begin
     id 24 
     name rclavicle
     direction -0.961409 0.252588 0.109054   
     length 4.04305  
     axis 0 0 0   XYZ 
    dof ry rz
    limits (-10.0 20.0)
           (-20.0 0.0)
  end
  begin
     id 25 
     name rhumerus
     direction -1 -4.4897e-011 1.33872e-017  
     length 4.70164   
     axis -180 30 90   XYZ
    dof rx ry rz
    limits (-90.0 60.0)
           (-90.0 90.0)
           (-90.0 90.0)
  end
  begin
     id 26 
     name rradius
     direction -1 -4.48954e-011 1.83844e-026   
     length 3.49911   
     axis -180 30 90   XYZ
    dof rx
    limits (-10.0 170.0)
  end
  begin
     id 27 
     name rwrist
     direction -1 -4.49008e-011 2.70032e-026   
     length 1.74955   
     axis -1.81515e-014 -90 -90   XYZ
    dof ry
    limits (-180.0 0.0)
  end
  begin
     id 28
     name rhand
     direction -1 -4.48916e-011 5.40064e-026   
     length 0.739335   
     axis -3.44607e-014 -90 -90   XYZ
    dof rx rz
    limits (-90.0 90.0)
           (-45.0 45.0)
  end
  begin
     id 29
     name rfingers
     direction -1 -4.48987e-011 1.08013e-025   
     length 0.596071   
     axis -6.89214e-014 -90 -90   XYZ
    dof rx
    limits (0.0 90.0)
  end
  begin
     id 30
     name rthumb
     direction -0.707107 -6.34935e-011 0.707107   
     length 0.855843   
     axis -90 -45 -2.85299e-015   XYZ
    dof rx rz
    limits (-45.0 45.0)
           (-45.0 45.0)
  end
:hierarchy
  begin
    root lhipjoint rhipjoint lowerback
    lhipjoint lfemur
    lfemur ltibia
    ltibia lfoot
    lfoot ltoes
    rhipjoint rfemur
    rfemur rtibia
    rtibia rfoot
    rfoot rtoes
    lowerback upperback
    upperback thorax
    thorax lowerneck lclavicle rclavicle
    lowerneck upperneck
    upperneck head
    lclavicle lhumerus
    lhumerus lradius
    lradius lwrist
    lwrist lhand lthumb
    lhand lfingers
    rclavicle rhumerus
    rhumerus rradius
    rradius rwrist
    rwrist rhand rthumb
    rhand rfingers
  end

#!OML:ASF I:\salsa\salsa 7_09\Patient 1\Session 1\dancermale.ASF
:FULLY-SPECIFIED
:DEGREES
263
root 5.08088 17.3231 1.05054 -137.18 81.0305 -142.247
lowerback -6.5387 2.50078 6.34356
upperback 0.915534 2.77701 1.74915
thorax 4.84344 1.53676 -1.43181
lowerneck -8.13409 -4.18861 -1.06899
upperneck 21.6238 -4.89454 -1.23766
head 8.01048 -2.33864 -0.655367
rclavicle 3.07371e-014 2.44505e-014
rhumerus -9.92468 -4.48646 -85.3402
rradius 48.329
rwrist 1.24031
rhand -41.2501 7.13567
rfingers 7.12502
rthumb -14.1726 -22.3609
lclavicle 3.07371e-014 2.44505e-014
lhumerus -16.9428 2.50068 83.0147
lradius 83.2639
lwrist 74.3922
lhand -19.2621 58.3397
lfingers 7.12502
lthumb 7.05213 -271.798
rfemur -7.58003 -3.33028 25.3454
rtibia 12.5546
rfoot -14.0993 -10.2974
rtoes -7.58206
lfemur -25.7997 -2.69204 -8.18455
ltibia 35.4053
lfoot -18.2718 8.88263
ltoes -11.2796
264
root 5.19217 17.3281 0.998741 -138.783 80.9578 -143.924
lowerback -6.77071 2.56961 6.29745
upperback 0.942796 2.85389 1.65701
thorax 5.0117 1.57786 -1.48169
lowerneck -8.0983 -4.37837 -0.828788
upperneck 21.6141 -5.17371 -1.34682
head 7.98955 -2.46186 -0.755378
rclavicle 1.07219e-014 -3.37934e-015
rhumerus -9.01655 -4.79946 -85.9914
rradius 49.3431
rwrist 0.133325
rhand -41.9401 7.36129
rfingers 7.12502
rthumb -14.8374 -22.0875
lclavicle 1.07219e-014 -3.37934e-015
lhumerus -16.016 2.81604 82.143
lradius 84.4951
lwrist 73.6065
lhand -19.6993 57.6346
lfingers 7.12502
lthumb 6.63007 -272.489
rfemur -6.67363 -3.07886 25.0017
rtibia 11.6009
rfoot -14.0476 -10.7265
rtoes -7.46079
lfemur -25.6179 -3.55332 -8.56949
ltibia 33.3908
lfoot -17.2958 7.83902
ltoes -9.5382
265
root 5.31287 17.3302 0.938529 -138.256 81.3262 -143.388
lowerback -6.96762 2.82985 6.22264
upperback 0.968162 3.19128 1.58326
thorax 5.17547 1.74627 -1.46537
lowerneck -8.14797 -4.59693 -0.896837
upperneck 21.7905 -5.4853 -1.21821
head 8.06293 -2.5986 -0.734424
rclavicle 3.65888e-014 1.19271e-014
rhumerus -8.22301 -5.18433 -86.5578
rradius 50.5027
rwrist -1.20903
rhand -42.3905 7.2832
rfingers 7.12502
rthumb -15.2714 -22.1331
lclavicle 3.65888e-014 1.19271e-014
lhumerus -14.9715 3.39695 81.5632
lradius 85.7824
lwrist 72.2325
lhand -19.355 57.0455
lfingers 7.12502
lthumb 6.96247 -273.089
rfemur -5.85285 -2.71352 24.6607
rtibia 10.9941
rfoot -14.0106 -10.8021
rtoes -8.17365
lfemur -25.0342 -3.61387 -9.11973
ltibia 31.966
lfoot -14.9994 6.87704
ltoes -9.49785
266
root 5.42797 17.3333 0.873944 -137.953 81.5935 -143.081
lowerback -7.06842 2.99595 6.13476
upperback 0.925555 3.4142 1.57735
thorax 5.19936 1.85328 -1.39123
lowerneck -8.2238 -4.74954 -0.951177
upperneck 22.0686 -5.68489 -1.17543
head 8.17295 -2.68653 -0.736117
rclavicle 4.96962e-016 -7.55382e-015
rhumerus -7.44475 -5.72078 -87.1021
rradius 51.6899
rwrist -2.58013
rhand -42.5231 7.259
rfingers 7.12502
rthumb -15.399 -22.1475
lclavicle 4.96962e-016 -7.55382e-015
lhumerus -14.0197 4.14987 81.1233
lradius 87.1569
lwrist 70.7845
lhand -18.6411 56.3671
lfingers 7.12502
lthumb 7.65159 -273.791
rfemur -5.18252 -2.33472 24.3519
rtibia 10.6115
rfoot -14.0556 -11.0544
rtoes -8.88317
lfemur -24.4272 -3.62258 -9.67849
ltibia 31.9544
lfoot -14.2115 9.15292
ltoes -13.0842
267
root 5.53507 17.34 0.796073 -138.222 81.8544 -143.438
lowerback -7.20905 3.11153 6.12519
upperback 0.834293 3.5638 1.52207
thorax 5.19691 1.92543 -1.42026
lowerneck -8.124 -4.87769 -0.976693
upperneck 22.1794 -5.85406 -1.16048
head 8.1932 -2.76298 -0.741534
rclavicle -1.36416e-014 1.33186e-014
rhumerus -6.67054 -6.26407 -87.6833
rradius 52.6997
rwrist -3.82975
rhand -42.7934 7.1376
rfingers 7.12502
rthumb -15.6594 -22.2487
lclavicle -1.36416e-014 1.33186e-014
lhumerus -13.3788 4.34923 80.5054
lradius 88.8774
lwrist 70.4602
lhand -18.9705 55.4433
lfingers 7.12502
lthumb 7.33359 -274.704
rfemur -4.87163 -2.1699 23.8941
rtibia 10.6219
rfoot -14.1852 -11.1988
rtoes -9.08314
lfemur -23.8506 -3.92565 -10.2879
ltibia 31.9259
lfoot -14.8684 9.42146
ltoes -13.5626
268
root 5.64344 17.3457 0.71194 -138.582 82.3047 -143.789
lowerback -7.29077 3.25638 6.02535
upperback 0.811562 3.7623 1.4349
thorax 5.23316 2.02109 -1.4264
lowerneck -7.95818 -5.02085 -0.900279
upperneck 22.1198 -6.04263 -1.26255
head 8.13639 -2.85579 -0.799263
rclavicle 9.92681e-015 9.74045e-015
rhumerus -5.98711 -6.74843 -88.268
rradius 53.7697
rwrist -5.29197
rhand -43.1702 7.08689
rfingers 7.12502
rthumb -16.0222 -22.2706
lclavicle 9.92681e-015 9.74045e-015
lhumerus -12.6448 4.32731 79.9081
lradius 90.5823
lwrist 69.6233
lhand -18.879 54.8129
lfingers 7.12502
lthumb 7.42192 -275.337
rfemur -4.75606 -2.07206 23.2808
rtibia 11.1851
rfoot -14.5011 -11.2113
rtoes -9.78065
lfemur -22.9067 -4.60733 -10.9148
ltibia 31.3559
lfoot -15.3837 9.91702
ltoes -13.8999
269
root 5.75806 17.3504 0.63917 -139.424 82.8202 -144.47
lowerback -7.27762 3.36834 5.60265
upperback 0.858492 3.94733 1.41105
thorax 5.26017 2.10101 -1.19265
lowerneck -7.85244 -5.15988 -0.84243
upperneck 22.0946 -6.21489 -1.39689
head 8.10142 -2.94524 -0.865009
rclavicle -7.3774e-014 1.80894e-014
rhumerus -5.41791 -7.24503 -88.8016
rradius 54.975
rwrist -6.84143
rhand -43.5178 6.95764
rfingers 7.12502
rthumb -16.357 -22.3726
lclavicle -7.3774e-014 1.80894e-014
lhumerus -11.6944 4.34529 79.4833
lradius 92.3348
lwrist 68.2821
lhand -18.6017 54.7142
lfingers 7.12502
lthumb 7.68956 -275.446
rfemur -4.66723 -1.51225 22.7181
rtibia 12.1486
rfoot -15.0755 -11.7759
rtoes -10.8927
lfemur -21.564 -5.34515 -11.5359
ltibia 30.1716
lfoot -15.4521 10.3928
ltoes -14.8149
270
root 5.86467 17.3613 0.580755 -139.038 83.8523 -144.014
lowerback -7.18195 3.63631 4.75051
upperback 0.86533 4.38556 1.35844
thorax 5.1794 2.29125 -0.727016
lowerneck -7.83019 -5.29514 -0.83286
upperneck 22.0886 -6.40332 -1.40294
head 8.09419 -3.03429 -0.885007
rclavicle -1.90833e-014 1.55052e-014
rhumerus -4.89405 -7.66528 -89.2445
rradius 56.0798
rwrist -8.5551
rhand -43.9758 6.64517
rfingers 7.12502
rthumb -16.7979 -22.6482
lclavicle -1.90833e-014 1.55052e-014
lhumerus -10.772 4.09916 79.2663
lradius 94.3279
lwrist 67.6295
lhand -19.7874 54.4856
lfingers 7.12502
lthumb 6.54503 -275.635
rfemur -5.134 -0.43251 22.0295
rtibia 13.7838
rfoot -15.7848 -12.407
rtoes -11.1804
lfemur -20.1708 -5.16047 -12.3627
ltibia 28.7855
lfoot -15.2533 10.7221
ltoes -15.9547
271
root 5.96696 17.3884 0.506327 -142.875 84.5882 -147.576
lowerback -6.84999 3.76215 4.0409
upperback 0.929481 4.63445 1.20471
thorax 5.02646 2.39411 -0.484459
lowerneck -7.91269 -5.46085 -0.848252
upperneck 22.124 -6.63044 -1.41124
head 8.12071 -3.14401 -0.909446
rclavicle -7.87684e-015 -1.82882e-014
rhumerus -4.45175 -8.26572 -89.6753
rradius 57.1857
rwrist -10.375
rhand -44.1939 6.47631
rfingers 7.12502
rthumb -17.0079 -22.7991
lclavicle -7.87684e-015 -1.82882e-014
lhumerus -9.94142 4.18803 79.3087
lradius 96.054
lwrist 65.9354
lhand -18.8605 54.3019
lfingers 7.12502
lthumb 7.43985 -275.849
rfemur -5.62112 -0.187327 21.063
rtibia 15.9516
rfoot -16.4832 -12.742
rtoes -10.8222
lfemur -18.6899 -4.77732 -13.5057
ltibia 27.4998
lfoot -15.1411 10.6007
ltoes -17.3076
